<?xml version="1.0" encoding="iso-8859-1"?>
<!-- Generator: Adobe Illustrator 19.0.0, SVG Export Plug-In . SVG Version: 6.00 Build 0)  -->
<svg version="1.1" id="Layer_1" xmlns="http://www.w3.org/2000/svg" xmlns:xlink="http://www.w3.org/1999/xlink" x="0px" y="0px"
	 viewBox="0 0 291.764 291.764" style="enable-background:new 0 0 291.764 291.764;" xml:space="preserve">
<g>
	<path style="fill:#F4B459;" d="M145.882,0c80.573,0,145.882,65.319,145.882,145.882s-65.31,145.882-145.882,145.882
		S0,226.446,0,145.882S65.31,0,145.882,0z"/>
	<path style="fill:#D07C40;" d="M145.882,27.399c-65.465,0-118.529,53.065-118.529,118.529s53.065,118.529,118.529,118.529
		s118.529-53.065,118.529-118.529S211.347,27.399,145.882,27.399z M145.882,246.231c-55.39,0-100.294-44.914-100.294-100.294
		c0-55.39,44.904-100.294,100.294-100.294s100.294,44.904,100.294,100.294C246.176,201.318,201.272,246.231,145.882,246.231z
		 M174.63,141.187c6.738-3.483,10.969-9.601,9.984-19.804c-1.331-13.941-14.369-18.618-29.395-19.949l-0.009-19.329h-9.355v18.828
		l-9.3,0.128V82.104h-9.063v19.329c-2.516,0.055-8.698,0.109-11.124,0.109v-0.064l-16.056-0.009v12.573c0,0,12.008-0.164,11.88,0
		c4.714,0,6.255,2.772,6.683,5.161l0.009,22.028l1.231,0.082h-1.231v30.863c-0.201,1.504-1.076,3.902-4.367,3.911
		c0.146,0.137-11.889,0-11.889,0l-2.316,14.05h15.144l12.017,0.073l0.009,19.566h8.78l-0.009-19.357
		c3.209,0.073,6.282,0.109,9.309,0.1v19.256h10.212v-19.53c19.566-1.131,33.836-6.118,35.541-24.709
		C192.701,150.56,185.736,143.886,174.63,141.187z M135.698,114.891c6.574,0,27.216-2.115,27.216,11.762
		c0,13.294-20.642,11.753-27.216,11.753V114.891z M135.698,176.162V150.25c7.896,0,32.632-2.289,32.632,12.956
		C168.33,177.831,143.594,176.162,135.698,176.162z"/>
</g>
<g>
</g>
<g>
</g>
<g>
</g>
<g>
</g>
<g>
</g>
<g>
</g>
<g>
</g>
<g>
</g>
<g>
</g>
<g>
</g>
<g>
</g>
<g>
</g>
<g>
</g>
<g>
</g>
<g>
</g>
</svg>
