<?xml version="1.0" encoding="iso-8859-1"?>
<!-- Generator: Adobe Illustrator 19.0.0, SVG Export Plug-In . SVG Version: 6.00 Build 0)  -->
<svg version="1.1" id="Layer_1" xmlns="http://www.w3.org/2000/svg" xmlns:xlink="http://www.w3.org/1999/xlink" x="0px" y="0px"
	 viewBox="0 0 512.002 512.002" style="enable-background:new 0 0 512.002 512.002;" xml:space="preserve">
  <path style="fill:#91E713;" d="M300.549,406.695l11.235-3.746c40.027-13.342,83.302-13.342,123.33,0l11.235,3.746l-11.235,3.745
	c-40.027,13.342-83.302,13.342-123.33,0L300.549,406.695z"/>
  <g>
    <path style="fill:#00BA94;" d="M65.647,406.695l11.236,3.745c40.027,13.342,83.302,13.342,123.329,0l11.235-3.745l-11.235-3.746
		c-40.027-13.342-83.302-13.342-123.329,0L65.647,406.695z"/>
    <path style="fill:#00BA94;" d="M227.649,382.396l-9.143-3.048c-73.772-24.591-130.757-83.854-152.438-158.533l0,0l0,0
		c74.68,21.681,133.942,78.666,158.533,152.438L227.649,382.396z"/>
  </g>
  <g>
    <path style="fill:#91E713;" d="M437.83,220.815l-9.143,3.048c-73.772,24.591-130.757,83.854-152.438,158.533l0,0l0,0
		c74.68-21.681,133.942-78.666,158.533-152.438L437.83,220.815z"/>
    <path style="fill:#91E713;" d="M251.948,358.095l-6.417-12.834c-51.775-103.55-49.377-225.928,6.417-327.37l0,0l0,0
		c55.793,101.441,58.192,223.819,6.417,327.37L251.948,358.095z"/>
  </g>
  <path style="fill:#00BA94;" d="M251.948,358.095l-6.417-12.834c-51.775-103.55-49.416-228.023,6.376-329.464l0.04,2.096l0,0"/>
  <rect x="243.517" y="228.982" width="15.607" height="23.931"/>
  <rect x="349.434" y="289.936" transform="matrix(-0.7071 -0.7071 0.7071 -0.7071 396.7263 767.1136)" width="15.607" height="22.912"/>
  <rect x="148.188" y="303.707" transform="matrix(-0.7071 -0.7071 0.7071 -0.7071 47.3672 642.6419)" width="17.183" height="15.607"/>
  <path d="M437.583,395.546c-41.359-13.786-86.911-13.786-128.265,0l-12.237,4.079h-27.026l10.341-10.342
	c76.207-22.822,136.606-81.309,161.79-156.859l7.983-23.95l-23.95,7.984c-75.55,25.183-134.036,85.582-156.858,161.789
	l-10.241,10.241v-27.287l6.08-12.158c25.987-51.975,39.134-110.443,38.021-169.083c-1.114-58.651-16.478-116.574-44.43-167.508
	L251.956,0l-6.844,12.445c-27.98,50.871-43.371,108.738-44.51,167.346c-1.14,58.598,11.983,117.023,37.952,168.96l4.961,9.921
	v28.551l-9.044-9.044l-2.465-7.395c-25.402-76.204-86.62-135.069-163.762-157.465l-13.626-3.956l3.957,13.626
	c22.396,77.14,81.262,138.36,157.465,163.761l7.395,2.465l10.41,10.41h-18.926l-12.237-4.079
	c-41.355-13.786-86.907-13.786-128.265,0l-33.443,11.149l33.443,11.149c20.679,6.892,42.407,10.339,64.133,10.339
	c21.728,0,43.455-3.447,64.133-10.339l7.833-2.611h33v96.766h15.607v-96.766h42.365l7.833,2.611
	c20.678,6.892,42.406,10.339,64.133,10.339c21.727,0,43.454-3.447,64.133-10.339l33.443-11.149L437.583,395.546z M91.769,406.695
	c30.56-7.847,62.998-7.846,93.558,0C154.769,414.542,122.329,414.543,91.769,406.695z M425.362,233.283
	c-20.826,57.322-63.523,103.555-118.048,129.083l39.253-39.253l-11.037-11.036l-39.254,39.254
	C321.805,296.806,368.039,254.108,425.362,233.283z M216.205,180.095c0.994-51.11,13.308-101.621,35.737-147.008
	c22.409,45.446,34.703,96.014,35.673,147.168c0.948,49.844-8.873,99.544-28.495,144.874v-55.567h-15.607v52.673
	C224.657,277.652,215.254,228.942,216.205,180.095z M78.248,232.994c57.093,20.738,103.46,63.312,129.084,118.049l-30.865-30.865
	l-11.037,11.036l30.865,30.865C141.56,336.453,98.987,290.087,78.248,232.994z M326.671,406.695c30.558-7.847,62.998-7.847,93.558,0
	C389.668,414.542,357.23,414.542,326.671,406.695z"/>
  <g>
</g>
  <g>
</g>
  <g>
</g>
  <g>
</g>
  <g>
</g>
  <g>
</g>
  <g>
</g>
  <g>
</g>
  <g>
</g>
  <g>
</g>
  <g>
</g>
  <g>
</g>
  <g>
</g>
  <g>
</g>
  <g>
</g>
</svg>
