<?xml version="1.0" encoding="iso-8859-1"?>
<!-- Generator: Adobe Illustrator 19.0.0, SVG Export Plug-In . SVG Version: 6.00 Build 0)  -->
<svg version="1.1" id="Layer_1" xmlns="http://www.w3.org/2000/svg" xmlns:xlink="http://www.w3.org/1999/xlink" x="0px" y="0px"
	 viewBox="0 0 512 512" style="enable-background:new 0 0 512 512;" xml:space="preserve">
<path style="fill:#FF675C;" d="M482.691,29.322c0-0.011-0.011-0.011-0.011-0.021c-28.39-28.368-74.395-28.358-102.774,0.021
	c-28.326,28.326-28.379,74.213-0.171,102.614c0.053,0.053,0.107,0.118,0.171,0.171c28.379,28.39,74.406,28.39,102.785,0
	C511.081,103.727,511.081,57.701,482.691,29.322z"/>
<path style="fill:#5CC4E0;" d="M482.68,29.3L379.735,131.936c-28.208-28.401-28.155-74.288,0.171-102.614
	C408.285,0.943,454.29,0.932,482.68,29.3z"/>
<path style="fill:#DB3D5A;" d="M482.691,29.322c0-0.011-0.011-0.011-0.011-0.021L379.735,131.936
	c0.053,0.053,0.107,0.118,0.171,0.171c5.076,5.077,10.722,9.23,16.725,12.491l98.551-98.551
	C491.921,40.044,487.768,34.398,482.691,29.322z"/>
<path style="fill:#FF675C;" d="M277.463,379.919c-28.379-28.39-74.406-28.39-102.785,0c-0.011,0-0.011,0.011-0.021,0.011
	c-28.368,28.39-28.358,74.395,0.021,102.774c28.326,28.326,74.213,28.379,102.614,0.171c0.053-0.053,0.118-0.107,0.171-0.171
	C305.853,454.325,305.853,408.298,277.463,379.919z"/>
<path style="fill:#5CC4E0;" d="M277.463,379.919c28.39,28.379,28.39,74.406,0,102.785c-0.053,0.064-0.118,0.118-0.171,0.171
	L174.657,379.93c0.011,0,0.011-0.011,0.021-0.011C203.058,351.529,249.084,351.529,277.463,379.919z"/>
<path style="fill:#DB3D5A;" d="M277.292,482.875L174.657,379.93c-4.551,4.555-8.362,9.567-11.452,14.882l99.362,99.362
	C267.823,491.119,272.779,487.357,277.292,482.875z"/>
<path style="fill:#FF675C;" d="M132.276,234.72c-0.064-0.053-0.118-0.118-0.171-0.171c-28.39-28.39-74.416-28.39-102.795,0
	c-28.39,28.379-28.39,74.406,0,102.785c0,0.011,0.011,0.011,0.011,0.021c28.39,28.368,74.395,28.358,102.785-0.021
	C160.43,309.008,160.484,263.121,132.276,234.72z"/>
<path style="fill:#DB3D5A;" d="M132.276,234.72L29.32,337.355c4.813,4.81,10.143,8.784,15.797,11.962l98.962-98.962
	C140.936,244.764,137.014,239.492,132.276,234.72z"/>
<path style="fill:#5CC4E0;" d="M132.105,234.549c0.053,0.053,0.107,0.118,0.171,0.171L29.32,337.355
	c0-0.011-0.011-0.011-0.011-0.021c-28.39-28.379-28.39-74.406,0-102.785C57.688,206.16,103.715,206.16,132.105,234.549z"/>
<path style="fill:#FAEC8E;" d="M458.951,253.629l-90.308-90.308L235.618,296.346l90.308,90.317
	c36.738,36.727,96.297,36.727,133.024,0C495.689,349.926,495.689,290.367,458.951,253.629z"/>
<path style="fill:#FBC96C;" d="M343.029,369.561l-90.308-90.317l115.923-115.923l-18.527-18.527L217.092,277.818l108.835,108.845
	c36.738,36.727,96.297,36.727,133.024,0c2.9-2.9,5.544-5.956,7.987-9.118C430.051,406.033,376.867,403.39,343.029,369.561z"/>
<path style="fill:#FF675C;" d="M350.116,144.794L217.092,277.818L108.247,168.983c-36.727-36.738-36.727-96.297,0-133.024
	c36.738-36.738,96.297-36.738,133.035,0L350.116,144.794z"/>
<g>
	<path style="fill:#DB3D5A;" d="M125.349,151.881c-33.828-33.838-36.472-87.022-7.985-123.907c-3.162,2.442-6.218,5.087-9.119,7.987
		c-36.727,36.727-36.727,96.286,0,133.024l108.845,108.835l0,0l17.102-17.102L125.349,151.881z"/>
	<circle style="fill:#DB3D5A;" cx="221.261" cy="185.999" r="19.775"/>
	<circle style="fill:#DB3D5A;" cx="240.501" cy="141.106" r="9.086"/>
	<circle style="fill:#DB3D5A;" cx="167.816" cy="142.174" r="26.188"/>
</g>
<path d="M246.951,30.291c-39.803-39.803-104.57-39.803-144.373,0c-39.794,39.795-39.794,104.555,0.001,144.362l217.68,217.68
	c19.903,19.896,46.044,29.845,72.183,29.845s52.28-9.949,72.177-29.846c39.802-39.803,39.802-104.569,0-144.371L246.951,30.291z
	 M453.281,380.995c-33.543,33.544-88.132,33.544-121.686,0L228.429,277.818l52.975-52.974c3.131-3.131,3.131-8.207,0-11.337
	c-3.131-3.131-8.206-3.131-11.338,0l-52.975,52.974L113.915,163.316c-33.544-33.555-33.544-88.143,0-121.688
	c33.552-33.553,88.146-33.553,121.698,0l103.165,103.166l-45.158,45.158c-3.131,3.131-3.131,8.207,0,11.337
	c1.566,1.565,3.618,2.348,5.669,2.348s4.103-0.782,5.669-2.348l45.156-45.156l103.166,103.165
	C486.834,292.85,486.834,347.443,453.281,380.995z"/>
<path d="M373.971,137.508c0.02,0.02,0.042,0.041,0.062,0.062c0.005,0.005,0.01,0.011,0.015,0.016
	c0.003,0.003,0.006,0.005,0.009,0.009c0.092,0.095,0.185,0.19,0.282,0.283c15.227,15.18,35.451,23.539,56.96,23.539
	c21.557,0,41.823-8.396,57.061-23.64C503.604,122.537,512,102.272,512,80.714c0-21.442-8.306-41.605-23.396-56.816
	c-0.013-0.014-0.027-0.026-0.04-0.038c-0.011-0.012-0.019-0.025-0.031-0.036c-0.032-0.034-0.068-0.064-0.1-0.097
	c-0.03-0.031-0.056-0.065-0.087-0.096c-31.463-31.44-82.652-31.432-114.11,0.024c-31.315,31.316-31.437,82.333-0.308,113.807
	C373.944,137.476,373.957,137.493,373.971,137.508z M385.576,34.99c23.238-23.239,59.909-25.042,85.254-5.437
	c-9.774,9.515-21.831,21.77-22.455,22.405c-3.104,3.158-3.061,8.233,0.095,11.337c1.562,1.535,3.59,2.3,5.621,2.3
	c2.073,0,4.147-0.801,5.716-2.395c0.153-0.155,12.631-12.838,22.4-22.345c8.91,11.333,13.76,25.219,13.76,39.86
	c0,17.273-6.728,33.512-18.946,45.725c-12.211,12.215-28.449,18.943-45.722,18.943c-14.689,0-28.617-4.881-39.969-13.848
	c19.474-19.804,50.436-50.135,50.779-50.472c3.163-3.098,3.216-8.174,0.118-11.337c-3.095-3.162-8.173-3.217-11.337-0.119
	c-0.344,0.337-31.211,30.577-50.83,50.522C360.56,94.795,362.4,58.166,385.576,34.99z"/>
<path d="M226.071,350.61c-21.448,0-41.616,8.31-56.829,23.409c-0.042,0.037-0.078,0.081-0.119,0.12
	c-0.045,0.043-0.093,0.08-0.138,0.124c-31.441,31.465-31.431,82.654,0.022,114.109c15.715,15.715,36.384,23.576,57.062,23.573
	c20.537-0.002,41.081-7.761,56.764-23.282c0.012-0.011,0.025-0.02,0.036-0.032c0.013-0.012,0.032-0.032,0.045-0.045
	c0.009-0.009,0.017-0.016,0.026-0.025c0.001-0.001,0.001-0.001,0.002-0.002c0.002-0.002,0.005-0.004,0.007-0.006
	c0.006-0.006,0.012-0.013,0.018-0.019c0.088-0.084,0.175-0.168,0.283-0.282c15.171-15.224,23.521-35.439,23.521-56.94
	c0-21.557-8.396-41.823-23.639-57.06C267.894,359.006,247.628,350.61,226.071,350.61z M276.964,471.188l-57.202-57.407
	c-3.125-3.137-8.202-3.145-11.337-0.02c-3.136,3.125-3.145,8.202-0.02,11.338l57.175,57.38c-11.59,8.954-25.543,13.448-39.51,13.446
	c-16.566-0.001-33.135-6.3-45.723-18.889c-23.285-23.285-25.048-60.055-5.322-85.402c5.038,5.051,10.35,10.402,10.427,10.479
	c1.568,1.579,3.629,2.369,5.69,2.369c2.042,0,4.084-0.775,5.647-2.327c3.143-3.119,3.162-8.195,0.043-11.337
	c-0.077-0.077-5.411-5.45-10.474-10.526c11.305-8.839,25.135-13.647,39.713-13.647c17.273,0,33.512,6.728,45.724,18.945
	c12.216,12.211,18.944,28.449,18.944,45.722C290.739,445.959,285.884,459.853,276.964,471.188z"/>
<path d="M137.963,229.071c-0.002-0.002-0.004-0.003-0.005-0.005c-0.002-0.002-0.003-0.003-0.004-0.005
	c-0.015-0.015-0.031-0.027-0.046-0.042c-0.021-0.02-0.038-0.044-0.06-0.064c-0.028-0.028-0.055-0.055-0.073-0.074
	c-15.246-15.245-35.513-23.641-57.071-23.641s-41.824,8.396-57.062,23.64C8.396,244.119,0,264.384,0,285.942
	c0,21.442,8.306,41.605,23.396,56.816c0.042,0.046,0.089,0.085,0.131,0.13c0.041,0.043,0.076,0.089,0.118,0.13
	c0.002,0.002,0.004,0.004,0.007,0.006l0.001,0.001c15.728,15.716,36.383,23.572,57.043,23.572c20.669,0,41.342-7.866,57.077-23.596
	C169.13,311.646,169.215,260.536,137.963,229.071z M126.436,331.665c-23.288,23.281-60.058,25.047-85.407,5.33l47.542-47.447
	c3.134-3.128,3.139-8.204,0.012-11.337c-3.128-3.135-8.204-3.139-11.337-0.012l-47.559,47.464
	c-8.843-11.306-13.654-25.139-13.654-39.721c0-17.273,6.728-33.512,18.946-45.725c12.211-12.215,28.449-18.943,45.723-18.943
	c14.659,0,28.564,4.86,39.889,13.775L98.101,257.47c-3.136,3.125-3.144,8.202-0.018,11.337c1.566,1.571,3.622,2.357,5.678,2.357
	c2.047,0,4.095-0.779,5.66-2.339l22.46-22.39C151.455,271.772,149.639,308.463,126.436,331.665z"/>
<path d="M252.646,66.22c-2.362-2.363-4.75-4.853-7.06-7.26c-7.423-7.739-15.1-15.741-24.343-22.253
	c-13.088-9.221-29.039-14.503-44.916-14.869c-9.382-0.216-18.718,1.238-27.728,4.323c-4.189,1.433-6.423,5.992-4.989,10.181
	s5.992,6.423,10.18,4.989c7.216-2.47,14.665-3.632,22.167-3.462c12.731,0.294,25.534,4.536,36.049,11.946
	c7.979,5.622,14.795,12.726,22.01,20.247c2.365,2.466,4.812,5.016,7.29,7.496c1.566,1.566,3.618,2.349,5.67,2.349
	c2.051,0,4.102-0.782,5.668-2.347C255.774,74.427,255.776,69.351,252.646,66.22z"/>
<path d="M266.664,80.504c-3.041-3.216-8.115-3.36-11.333-0.316c-3.217,3.042-3.358,8.116-0.316,11.332
	c1.663,1.758,3.336,3.507,5.018,5.247c1.572,1.626,3.666,2.443,5.763,2.443c2.006,0,4.016-0.749,5.572-2.254
	c3.183-3.078,3.268-8.154,0.189-11.336C269.917,83.923,268.285,82.218,266.664,80.504z"/>
<g>
</g>
<g>
</g>
<g>
</g>
<g>
</g>
<g>
</g>
<g>
</g>
<g>
</g>
<g>
</g>
<g>
</g>
<g>
</g>
<g>
</g>
<g>
</g>
<g>
</g>
<g>
</g>
<g>
</g>
</svg>
