<?xml version="1.0" encoding="iso-8859-1"?>
<!-- Generator: Adobe Illustrator 19.0.0, SVG Export Plug-In . SVG Version: 6.00 Build 0)  -->
<svg version="1.1" id="Layer_1" xmlns="http://www.w3.org/2000/svg" xmlns:xlink="http://www.w3.org/1999/xlink" x="0px" y="0px"
	 viewBox="0 0 512 512" style="enable-background:new 0 0 512 512;" xml:space="preserve">
<path style="fill:#FFFFFF;" d="M256,480c-45.344,0-79.256-0.872-104-7.768V464v-16v-16h24v-48h-40v-16h16v-48H99.32
	c7.496-55.256,30.632-125.624,95.392-176h122.56c1.896,1.472,3.712,2.984,5.504,4.512C315.984,158.672,312,170.88,312,184
	c0,35.288,28.712,64,64,64c5.896,0,11.584-0.864,17.008-2.368C411.648,291.504,416,337.104,416,368C416,474.576,374.888,480,256,480
	z"/>
<path style="fill:#DCDDDE;" d="M320,136h-64v295.92c0,13.312-10.872,24.104-24.184,24.008c-2.704-0.024-5.184-0.08-7.816-0.112V456
	H110.024c25.04,29.848,72.264,32,145.976,32c117.544,0,168-5.128,168-120C424,282.76,395.104,193.112,320,136z"/>
<circle style="fill:#67C18C;" cx="256" cy="328" r="80"/>
<g>
	<circle style="fill:#FFD768;" cx="376" cy="184" r="56"/>
	<circle style="fill:#FFD768;" cx="452" cy="276" r="36"/>
	<circle style="fill:#FFD768;" cx="476" cy="140" r="28"/>
</g>
<polygon style="fill:#FFFFFF;" points="260,32 288,69.336 316,32 333.248,32 314.048,96 197.952,96 178.752,32 "/>
<rect x="200" y="112" style="fill:#44C8F5;" width="112" height="16"/>
<polygon style="fill:#DCDDDE;" points="264,24 288,56 312,24 344,24 320,96 256,96 "/>
<g>
	<rect x="24" y="456" style="fill:#FFD768;" width="120" height="32"/>
	<rect x="24" y="424" style="fill:#FFD768;" width="120" height="32"/>
	<rect x="48" y="392" style="fill:#FFD768;" width="120" height="32"/>
	<rect x="8" y="360" style="fill:#FFD768;" width="120" height="32"/>
	<rect x="24" y="328" style="fill:#FFD768;" width="120" height="32"/>
</g>
<g>
	<path style="fill:#0C3847;" d="M452,232c-16.464,0-30.824,9.104-38.368,22.536c-1.728-5.024-3.696-10.064-5.752-15.12
		C427.04,228.344,440,207.68,440,184c0-35.288-28.712-64-64-64c-16.448,0-31.424,6.296-42.776,16.528
		c-1.728-1.44-3.44-2.888-5.224-4.304v-27.056L354.752,16H308l-20,26.664L268,16H157.248L184,105.176V132.2
		C114.952,186.44,90.712,261.656,83.144,320H16v32H0v48h40v16H16v32v16v32h136v-7.312c26.936,6.52,61.456,7.312,104,7.312
		c118.864,0,176-5.44,176-128c0-15.448-1.088-34.488-4.232-55.312c6.96,4.608,15.28,7.312,24.232,7.312c24.264,0,44-19.736,44-44
		S476.264,232,452,232z M376,136c26.472,0,48,21.528,48,48s-21.528,48-48,48s-48-21.528-48-48S349.528,136,376,136z M200,112h112v16
		H200V112z M260,32l28,37.336L316,32h17.248l-19.2,64H197.952l-19.2-64H260z M32,336h104v16H32V336z M16,384v-16h104v16H40H16z
		 M56,400h80h24v16h-8H56V400z M32,432h8h96v16H32V432z M136,480H32v-16h104V480z M256,480c-45.344,0-79.256-0.872-104-7.768V464
		v-16v-16h24v-48h-40v-16h16v-48H99.32c7.496-55.256,30.632-125.624,95.392-176h122.56c1.896,1.472,3.712,2.984,5.504,4.512
		C315.984,158.672,312,170.88,312,184c0,35.288,28.712,64,64,64c5.896,0,11.584-0.864,17.008-2.368
		C411.648,291.504,416,337.104,416,368C416,474.576,374.888,480,256,480z M452,304c-15.44,0-28-12.56-28-28s12.56-28,28-28
		s28,12.56,28,28S467.44,304,452,304z"/>
	<path style="fill:#0C3847;" d="M476,104c-19.848,0-36,16.152-36,36s16.152,36,36,36s36-16.152,36-36S495.848,104,476,104z M476,160
		c-11.024,0-20-8.976-20-20s8.976-20,20-20s20,8.976,20,20S487.024,160,476,160z"/>
	<rect x="248" y="400" style="fill:#0C3847;" width="16" height="16"/>
	<rect x="248" y="240" style="fill:#0C3847;" width="16" height="16"/>
	
		<rect x="278.631" y="393.904" transform="matrix(0.3827 0.9239 -0.9239 0.3827 548.2501 -16.713)" style="fill:#0C3847;" width="16" height="16"/>
	
		<rect x="217.372" y="246.07" transform="matrix(-0.3827 -0.9239 0.9239 -0.3827 76.8897 559.5164)" style="fill:#0C3847;" width="16" height="16"/>
	
		<rect x="304.558" y="376.62" transform="matrix(0.7071 0.7071 -0.7071 0.7071 363.5135 -108.359)" style="fill:#0C3847;" width="16" height="16"/>
	
		<rect x="191.43" y="263.406" transform="matrix(0.7071 0.7071 -0.7071 0.7071 250.3244 -61.5252)" style="fill:#0C3847;" width="16" height="16"/>
	
		<rect x="321.914" y="350.556" transform="matrix(0.9239 0.3827 -0.3827 0.9239 162.3303 -98.9604)" style="fill:#0C3847;" width="16" height="16"/>
	
		<rect x="174.098" y="289.393" transform="matrix(-0.9239 -0.3827 0.3827 -0.9239 236.5257 641.8359)" style="fill:#0C3847;" width="16" height="16"/>
	<rect x="328" y="320" style="fill:#0C3847;" width="16" height="16"/>
	<rect x="168" y="320" style="fill:#0C3847;" width="16" height="16"/>
	
		<rect x="321.91" y="289.408" transform="matrix(0.9239 -0.3827 0.3827 0.9239 -88.7012 148.8932)" style="fill:#0C3847;" width="16" height="16"/>
	
		<rect x="174.094" y="350.618" transform="matrix(-0.9239 0.3827 -0.3827 -0.9239 487.5665 620.2508)" style="fill:#0C3847;" width="16" height="16"/>
	
		<rect x="304.555" y="263.419" transform="matrix(-0.7071 -0.7071 0.7071 -0.7071 341.6428 684.3514)" style="fill:#0C3847;" width="16" height="16"/>
	
		<rect x="191.422" y="376.613" transform="matrix(0.7071 0.7071 -0.7071 0.7071 330.3718 -28.3624)" style="fill:#0C3847;" width="16" height="16"/>
	
		<rect x="278.632" y="246.078" transform="matrix(0.9239 0.3827 -0.3827 0.9239 119.0528 -90.3499)" style="fill:#0C3847;" width="16" height="16"/>
	
		<rect x="217.409" y="393.923" transform="matrix(0.9239 0.3827 -0.3827 0.9239 170.971 -55.6663)" style="fill:#0C3847;" width="16" height="16"/>
</g>
<path style="fill:#FFFFFF;" d="M288,344c0-13.232-10.768-24-24-24h-16c-4.408,0-8-3.592-8-8s3.592-8,8-8h16h16v-16h-16v-16h-16v16
	c-13.232,0-24,10.768-24,24s10.768,24,24,24h16c4.408,0,8,3.592,8,8s-3.592,8-8,8h-16h-16v16h16v16h16v-16
	C277.232,368,288,357.232,288,344z"/>
<g>
</g>
<g>
</g>
<g>
</g>
<g>
</g>
<g>
</g>
<g>
</g>
<g>
</g>
<g>
</g>
<g>
</g>
<g>
</g>
<g>
</g>
<g>
</g>
<g>
</g>
<g>
</g>
<g>
</g>
</svg>
