<?xml version="1.0" encoding="iso-8859-1"?>
<!-- Generator: Adobe Illustrator 19.0.0, SVG Export Plug-In . SVG Version: 6.00 Build 0)  -->
<svg version="1.1" id="Layer_1" xmlns="http://www.w3.org/2000/svg" xmlns:xlink="http://www.w3.org/1999/xlink" x="0px" y="0px"
	 viewBox="0 0 511.999 511.999" style="enable-background:new 0 0 511.999 511.999;" xml:space="preserve">
<g transform="translate(-1)">
	<g>
		<path style="fill:#6A3311;" d="M18.354,496.576c-2.222,0-4.443-0.85-6.135-2.543c-3.393-3.393-3.393-8.878,0-12.271l24.55-24.55
			c3.384-3.384,8.878-3.384,12.271,0c3.384,3.393,3.384,8.886,0,12.271l-24.55,24.55C22.797,495.725,20.575,496.576,18.354,496.576"
			/>
		<path style="fill:#6A3311;" d="M9.667,470.542c-4.157,0-7.819-2.985-8.539-7.211c-0.816-4.721,2.36-9.207,7.081-10.014
			l27.084-4.651c4.729-0.859,9.207,2.36,10.014,7.081c0.816,4.721-2.36,9.207-7.081,10.023l-27.084,4.643
			C10.647,470.507,10.153,470.542,9.667,470.542"/>
		<path style="fill:#6A3311;" d="M44.396,505.254c-0.486,0-0.981-0.035-1.475-0.13c-4.721-0.807-7.897-5.294-7.081-10.014
			l4.643-27.084c0.807-4.729,5.294-7.932,10.023-7.081c4.721,0.807,7.897,5.294,7.081,10.014l-4.651,27.084
			C52.215,502.269,48.544,505.254,44.396,505.254"/>
	</g>
	<path style="fill:#88C057;" d="M462.573,204.026c11.715-3.272,18.319-15.672,14.501-27.223l-11.125-33.662
		c-2.543-7.68-10.613-12.071-18.449-10.023l-85.513,23.422l27.822-88.264c2.716-8.227-1.918-17.07-10.223-19.517l-55.782-16.462
		c-8.123-2.395-16.653,2.239-19.057,10.361l-25.487,86.164c-10.145,34.295-28.707,65.51-53.994,90.798l-86.797,86.806
		c-28.021,28.021-56.771,55.66-89.418,78.119c-1.927,1.328-3.827,2.898-5.736,4.764c-17.2,16.818-20.879,44.11-8.053,64.451
		c18.623,29.54,58.134,32.733,81.269,9.589c2.135-2.126,3.888-4.244,5.346-6.404c21.035-31.076,47.165-58.377,73.702-84.905
		l89.843-89.843c26.06-26.06,58.394-44.961,93.878-54.888L462.573,204.026z"/>
	<path style="fill:#E6E6E6;" d="M90.777,351.688c-13.329,11.689-27.119,22.806-41.724,32.855c-1.927,1.328-3.827,2.898-5.736,4.764
		c-17.2,16.818-20.879,44.11-8.053,64.46c18.623,29.531,58.125,32.725,81.269,9.589c2.135-2.135,3.888-4.252,5.346-6.422
		c9.884-14.596,20.914-28.342,32.56-41.585l-5.059-20.923c-1.258-6.309-6.795-10.847-13.225-10.847
		c-7.446,0-13.486-6.04-13.486-13.486c0-6.43-4.539-11.967-10.839-13.225L90.777,351.688z"/>
	<path style="fill:#FFFFFF;" d="M66.824,448.102c-2.222,0-4.443-0.85-6.135-2.543c-6.63-6.63-7.619-14.379-7.619-18.406
		s0.989-11.776,7.619-18.406c3.393-3.393,8.878-3.393,12.271,0c3.393,3.384,3.393,8.878,0,12.271
		c-2.204,2.204-2.534,4.79-2.534,6.135c0,1.64,0.434,4.035,2.534,6.135c3.393,3.393,3.393,8.878,0,12.271
		C71.267,447.251,69.046,448.102,66.824,448.102"/>
	<path style="fill:#436B1C;" d="M344.656,38.449l33.835,9.988l1.093,0.321l0,0l0,0c8.305,2.447,12.939,11.29,10.223,19.517
		l-27.822,88.264l40.526-11.099l34.07-102.053c2.716-8.235-1.927-17.078-10.24-19.517L370.265,7.374
		c-8.01-2.36-16.436,2.126-18.953,10.084L344.656,38.449z"/>
	<g>
		<path style="fill:#659C35;" d="M220.854,232.715c-2.456,0-4.886-1.033-6.604-3.046c-3.115-3.645-2.681-9.121,0.972-12.236
			c44.119-37.636,88.897-59.045,145.191-69.424c4.686-0.859,9.233,2.248,10.11,6.96c0.868,4.712-2.248,9.233-6.968,10.11
			c-53.838,9.928-94.833,29.531-137.077,65.562C224.846,232.03,222.841,232.715,220.854,232.715"/>
		<path style="fill:#659C35;" d="M413.743,192.444c-3.775,0-7.237-2.482-8.331-6.292c-1.319-4.608,1.336-9.416,5.953-10.735
			l26.902-7.715c4.573-1.31,9.416,1.345,10.726,5.953c1.328,4.608-1.336,9.416-5.944,10.735l-26.91,7.715
			C415.349,192.332,414.542,192.444,413.743,192.444"/>
		<path style="fill:#659C35;" d="M283.341,246.11c-2.577,0-5.129-1.145-6.838-3.332c-2.951-3.775-2.291-9.233,1.484-12.184
			c23.092-18.059,49.126-31.215,77.364-39.112l27.396-7.862c4.582-1.328,9.407,1.345,10.735,5.953
			c1.319,4.608-1.345,9.416-5.953,10.735l-27.448,7.871c-26.103,7.298-50.107,19.439-71.394,36.092
			C287.099,245.511,285.216,246.11,283.341,246.11"/>
		<path style="fill:#659C35;" d="M214.714,312.491c-2.222,0-4.443-0.85-6.135-2.543c-3.393-3.393-3.393-8.878,0-12.271
			l42.956-42.956c3.384-3.393,8.878-3.393,12.271,0c3.384,3.384,3.384,8.878,0,12.271l-42.956,42.956
			C219.157,311.641,216.936,312.491,214.714,312.491"/>
		<path style="fill:#659C35;" d="M171.761,355.44c-2.222,0-4.443-0.85-6.135-2.543c-3.393-3.393-3.393-8.878,0-12.271l18.406-18.406
			c3.393-3.393,8.886-3.393,12.271,0c3.393,3.384,3.393,8.878,0,12.271l-18.406,18.406
			C176.204,354.59,173.982,355.44,171.761,355.44"/>
		<path style="fill:#659C35;" d="M308.943,148.991c-0.816,0-1.64-0.121-2.456-0.364c-4.599-1.354-7.229-6.179-5.866-10.769
			l22.363-75.819c1.354-4.599,6.196-7.203,10.769-5.866c4.599,1.354,7.229,6.187,5.875,10.778l-22.372,75.811
			C316.146,146.544,312.692,148.991,308.943,148.991"/>
		<path style="fill:#659C35;" d="M512.173,138.341L497.16,94.3c-2.716-7.975-11.368-12.271-19.369-9.607l-62.785,23.309
			l-12.496,37.437l44.995-12.323c7.828-2.048,15.907,2.343,18.441,10.023l8.756,26.503l27.657-11.75
			C510.516,155.263,514.941,146.455,512.173,138.341"/>
	</g>
</g>
<g>
</g>
<g>
</g>
<g>
</g>
<g>
</g>
<g>
</g>
<g>
</g>
<g>
</g>
<g>
</g>
<g>
</g>
<g>
</g>
<g>
</g>
<g>
</g>
<g>
</g>
<g>
</g>
<g>
</g>
</svg>
