<?xml version="1.0" encoding="iso-8859-1"?>
<!-- Generator: Adobe Illustrator 19.0.0, SVG Export Plug-In . SVG Version: 6.00 Build 0)  -->
<svg version="1.1" id="Layer_1" xmlns="http://www.w3.org/2000/svg" xmlns:xlink="http://www.w3.org/1999/xlink" x="0px" y="0px"
	 viewBox="0 0 512 512" style="enable-background:new 0 0 512 512;" xml:space="preserve">
<path style="fill:#FFCF65;" d="M408.25,203.129c-36.136-43.942-90.917-71.972-152.25-71.972s-116.114,28.03-152.25,71.972v17.587
	H408.25V203.129z"/>
<path style="fill:#FFB450;" d="M287.5,133.714c-10.262-1.65-20.772-2.557-31.5-2.557c-61.333,0-116.114,28.03-152.25,71.972v17.587
	h98.514v-17.587C223.311,166.872,253.329,141.498,287.5,133.714z"/>
<path style="fill:#FFCF65;" d="M383.917,369.895c74.507-81.531,115.662-196.672,127.886-234.845
	c1.165-3.637-3.089-6.495-6.044-4.076C452.998,174.167,360.9,202.803,256,202.803S59.003,174.167,6.241,130.975
	c-2.955-2.419-7.209,0.438-6.044,4.076c12.225,38.172,53.379,153.314,127.886,234.845c6.911,7.561,16.573,12.027,26.816,12.027
	h202.201C367.344,381.922,377.006,377.456,383.917,369.895z"/>
<path id="SVGCleanerId_0" style="fill:#FFB450;" d="M280.24,381.92c-7.526,0-14.624-4.466-19.701-12.027
	c-35.74-53.234-60.968-120.684-76.72-171.795c-74.209-9.766-137.346-34.191-177.577-67.125c-2.955-2.419-7.209,0.438-6.044,4.076
	c12.225,38.172,53.379,153.314,127.886,234.844c6.909,7.561,16.573,12.028,26.816,12.028L280.24,381.92z"/>
<path style="fill:#FFDC78;" d="M256.001,238.628c90.65,0,173.768-20.978,238.612-55.877c8.02-20.251,13.776-37.043,17.19-47.701
	c1.165-3.638-3.089-6.495-6.044-4.076C452.998,174.167,360.9,202.804,256,202.804S59.003,174.167,6.241,130.974
	c-2.955-2.419-7.209,0.438-6.044,4.076c3.413,10.659,9.17,27.45,17.19,47.701C82.231,217.65,165.35,238.628,256.001,238.628z"/>
<g>
	<path id="SVGCleanerId_0_1_" style="fill:#FFB450;" d="M280.24,381.92c-7.526,0-14.624-4.466-19.701-12.027
		c-35.74-53.234-60.968-120.684-76.72-171.795c-74.209-9.766-137.346-34.191-177.577-67.125c-2.955-2.419-7.209,0.438-6.044,4.076
		c12.225,38.172,53.379,153.314,127.886,234.844c6.909,7.561,16.573,12.028,26.816,12.028L280.24,381.92z"/>
</g>
<path style="fill:#FFCF65;" d="M183.818,198.099c-74.209-9.766-137.346-34.191-177.577-67.125c-2.955-2.419-7.209,0.438-6.044,4.076
	c3.413,10.657,9.17,27.45,17.19,47.7c0,0,0,0,0,0.001c50.259,27.049,111.57,45.589,178.784,52.626
	C191.573,222.365,187.416,209.772,183.818,198.099z"/>
<g>
</g>
<g>
</g>
<g>
</g>
<g>
</g>
<g>
</g>
<g>
</g>
<g>
</g>
<g>
</g>
<g>
</g>
<g>
</g>
<g>
</g>
<g>
</g>
<g>
</g>
<g>
</g>
<g>
</g>
</svg>
