<?xml version="1.0" encoding="UTF-8"?>
<!DOCTYPE svg PUBLIC "-//W3C//DTD SVG 1.1//EN" "http://www.w3.org/Graphics/SVG/1.1/DTD/svg11.dtd">
<svg xmlns="http://www.w3.org/2000/svg" version="1.1" width="501px" height="501px" style="shape-rendering:geometricPrecision; text-rendering:geometricPrecision; image-rendering:optimizeQuality; fill-rule:evenodd; clip-rule:evenodd" xmlns:xlink="http://www.w3.org/1999/xlink">
<g><path style="opacity:0.97" fill="#010100" d="M 227.5,-0.5 C 242.167,-0.5 256.833,-0.5 271.5,-0.5C 373.254,12.4273 444.087,66.094 484,160.5C 511.509,240.249 503.176,315.916 459,387.5C 402.833,467.328 325.666,504.495 227.5,499C 153.869,491.278 94.3689,458.445 49,400.5C 20.7672,362.029 4.26725,319.029 -0.5,271.5C -0.5,256.833 -0.5,242.167 -0.5,227.5C 12.4308,125.744 66.0975,54.9104 160.5,15C 182.335,7.07039 204.669,1.90373 227.5,-0.5 Z"/></g>
<g><path style="opacity:1" fill="#f0eb47" d="M 235.5,19.5 C 312.171,16.9348 375.671,44.2682 426,101.5C 476.729,165.138 491.396,236.471 470,315.5C 444.465,393.035 392.965,444.535 315.5,470C 223.2,493.641 144.033,471.474 78,403.5C 16.1308,328.77 3.13077,246.104 39,155.5C 73.3989,83.7796 129.566,39.613 207.5,23C 216.923,21.337 226.256,20.1704 235.5,19.5 Z"/></g>
<g><path style="opacity:1" fill="#d7d261" d="M 352.5,149.5 C 339.384,149.861 326.384,151.028 313.5,153C 326.203,153.497 338.87,152.997 351.5,151.5C 347.46,153.117 343.127,153.95 338.5,154C 329.5,154.333 320.5,154.667 311.5,155C 310.123,156.241 308.79,156.408 307.5,155.5C 309.72,153.437 312.054,151.604 314.5,150C 327.321,148.639 339.987,148.472 352.5,149.5 Z"/></g>
<g><path style="opacity:1" fill="#4e4311" d="M 352.5,149.5 C 353.757,150.623 353.424,151.289 351.5,151.5C 338.87,152.997 326.203,153.497 313.5,153C 326.384,151.028 339.384,149.861 352.5,149.5 Z"/></g>
<g><path style="opacity:1" fill="#63591f" d="M 396.5,169.5 C 393.385,171.177 390.718,170.844 388.5,168.5C 392.952,167.399 397.285,166.232 401.5,165C 399.76,166.517 398.094,168.017 396.5,169.5 Z"/></g>
<g><path style="opacity:1" fill="#81753c" d="M 334.5,168.5 C 331.727,169.657 328.727,170.324 325.5,170.5C 328.123,168.735 331.123,168.068 334.5,168.5 Z"/></g>
<g><path style="opacity:1" fill="#1d1809" d="M 334.5,167.5 C 335.833,167.5 337.167,167.5 338.5,167.5C 352.941,166.899 367.274,167.732 381.5,170C 382.056,170.383 382.389,170.883 382.5,171.5C 382.494,173.844 381.327,175.178 379,175.5C 371.015,174.232 363.181,174.232 355.5,175.5C 351.486,175.334 347.486,175.501 343.5,176C 341.026,176.037 339.026,176.87 337.5,178.5C 325.732,180.184 314.732,183.851 304.5,189.5C 302.761,190.434 301.095,190.434 299.5,189.5C 299.977,188.522 300.643,187.689 301.5,187C 317.759,177.31 335.426,172.476 354.5,172.5C 360.537,172.829 366.537,172.496 372.5,171.5C 372,171.167 371.5,170.833 371,170.5C 364.025,169.204 357.192,169.204 350.5,170.5C 338.57,170.585 326.904,172.419 315.5,176C 306.263,179.952 297.263,184.452 288.5,189.5C 288.167,189.333 287.833,189.167 287.5,189C 290.081,185.912 293.081,183.412 296.5,181.5C 299.716,180.445 302.716,178.945 305.5,177C 311.959,174.347 318.625,172.181 325.5,170.5C 328.727,170.324 331.727,169.657 334.5,168.5C 334.5,168.167 334.5,167.833 334.5,167.5 Z"/></g>
<g><path style="opacity:1" fill="#555444" d="M 350.5,170.5 C 357.192,169.204 364.025,169.204 371,170.5C 371.5,170.833 372,171.167 372.5,171.5C 366.537,172.496 360.537,172.829 354.5,172.5C 358.312,171.676 362.312,171.176 366.5,171C 361.177,170.501 355.844,170.334 350.5,170.5 Z"/></g>
<g><path style="opacity:1" fill="#e6e157" d="M 334.5,167.5 C 334.5,167.833 334.5,168.167 334.5,168.5C 331.123,168.068 328.123,168.735 325.5,170.5C 318.625,172.181 311.959,174.347 305.5,177C 302.716,178.945 299.716,180.445 296.5,181.5C 296.9,179.623 297.9,178.123 299.5,177C 299.355,176.228 299.022,175.561 298.5,175C 300.037,173.89 300.703,172.39 300.5,170.5C 295.365,172.221 290.198,172.888 285,172.5C 284.667,170.953 285.167,169.62 286.5,168.5C 291.466,167.86 294.466,165.193 295.5,160.5C 299.547,160.305 303.547,160.638 307.5,161.5C 311.585,159.721 315.918,159.054 320.5,159.5C 321.871,158.213 323.705,157.547 326,157.5C 331.677,156.344 333.177,158.011 330.5,162.5C 330.709,163.086 331.043,163.586 331.5,164C 327.848,164.499 324.182,164.665 320.5,164.5C 320.5,165.5 320.5,166.5 320.5,167.5C 325.167,167.5 329.833,167.5 334.5,167.5 Z"/></g>
<g><path style="opacity:1" fill="#554c17" d="M 320.5,159.5 C 322.924,159.192 325.257,159.526 327.5,160.5C 326.667,160.833 325.833,161.167 325,161.5C 314.21,163.203 303.71,165.87 293.5,169.5C 293.167,169.167 292.833,168.833 292.5,168.5C 301.819,164.986 311.152,161.986 320.5,159.5 Z"/></g>
<g><path style="opacity:1" fill="#b5b24e" d="M 382.5,171.5 C 383.306,172.997 383.972,174.664 384.5,176.5C 384.167,176.833 383.833,177.167 383.5,177.5C 380.549,178.357 377.549,178.357 374.5,177.5C 368.355,176.51 362.022,176.177 355.5,176.5C 355.5,176.167 355.5,175.833 355.5,175.5C 363.181,174.232 371.015,174.232 379,175.5C 381.327,175.178 382.494,173.844 382.5,171.5 Z"/></g>
<g><path style="opacity:1" fill="#6c6a2e" d="M 355.5,175.5 C 355.5,175.833 355.5,176.167 355.5,176.5C 355.167,176.5 354.833,176.5 354.5,176.5C 348.752,176.607 343.085,177.274 337.5,178.5C 339.026,176.87 341.026,176.037 343.5,176C 347.486,175.501 351.486,175.334 355.5,175.5 Z"/></g>
<g><path style="opacity:1" fill="#d8d354" d="M 338.5,167.5 C 352.661,166.339 366.994,166.173 381.5,167C 382.667,168.833 384.167,170.333 386,171.5C 386.852,170.429 387.685,169.429 388.5,168.5C 390.718,170.844 393.385,171.177 396.5,169.5C 396.423,170.75 395.756,171.583 394.5,172C 392.19,172.497 389.857,172.663 387.5,172.5C 387.5,173.833 387.5,175.167 387.5,176.5C 391.182,176.335 394.848,176.501 398.5,177C 399.337,178.011 399.67,179.178 399.5,180.5C 397.585,180.784 395.919,180.451 394.5,179.5C 399.411,179.164 399.077,178.498 393.5,177.5C 391.279,177.439 390.946,178.105 392.5,179.5C 388.785,179.32 385.118,179.654 381.5,180.5C 378.966,179.727 376.632,178.727 374.5,177.5C 377.549,178.357 380.549,178.357 383.5,177.5C 383.833,177.167 384.167,176.833 384.5,176.5C 383.972,174.664 383.306,172.997 382.5,171.5C 382.389,170.883 382.056,170.383 381.5,170C 367.274,167.732 352.941,166.899 338.5,167.5 Z"/></g>
<g><path style="opacity:1" fill="#48380c" d="M 394.5,179.5 C 393.833,179.5 393.167,179.5 392.5,179.5C 390.946,178.105 391.279,177.439 393.5,177.5C 399.077,178.498 399.411,179.164 394.5,179.5 Z"/></g>
<g><path style="opacity:1" fill="#d0cd62" d="M 176.5,179.5 C 184.984,178.507 193.651,178.174 202.5,178.5C 205.023,179.254 207.689,179.92 210.5,180.5C 211.741,183.537 211.741,186.537 210.5,189.5C 209.078,189.291 207.745,188.791 206.5,188C 209.925,186.402 210.258,184.402 207.5,182C 197.308,179.737 186.974,178.904 176.5,179.5 Z"/></g>
<g><path style="opacity:1" fill="#e9e354" d="M 202.5,178.5 C 193.651,178.174 184.984,178.507 176.5,179.5C 174.5,179.833 172.5,180.167 170.5,180.5C 163.226,181.104 156.226,182.438 149.5,184.5C 138.567,187.468 128.901,192.801 120.5,200.5C 119.5,201.167 118.5,201.833 117.5,202.5C 117.178,200.278 117.845,198.444 119.5,197C 118.552,196.517 117.552,196.351 116.5,196.5C 116.329,193.203 116.995,192.869 118.5,195.5C 119.814,194.687 120.981,193.687 122,192.5C 122.333,192.833 122.667,193.167 123,193.5C 123.374,192.584 123.874,191.75 124.5,191C 126.81,190.503 129.143,190.337 131.5,190.5C 131.5,189.5 131.5,188.5 131.5,187.5C 133.833,187.5 136.167,187.5 138.5,187.5C 138.649,186.448 138.483,185.448 138,184.5C 136.229,183.696 134.729,182.529 133.5,181C 133.833,180.667 134.167,180.333 134.5,180C 131.093,178.873 131.426,177.54 135.5,176C 136.793,175.51 138.127,175.343 139.5,175.5C 139.5,174.5 139.5,173.5 139.5,172.5C 140.833,172.5 142.167,172.5 143.5,172.5C 143.297,170.61 143.963,169.11 145.5,168C 144.692,166.294 143.359,165.461 141.5,165.5C 141.5,167.5 141.5,169.5 141.5,171.5C 139.073,171.523 136.74,172.023 134.5,173C 133.284,174.74 131.618,175.74 129.5,176C 128.085,179.751 125.585,182.584 122,184.5C 121.581,183.328 120.915,182.328 120,181.5C 117.851,184.446 116.018,184.613 114.5,182C 117.444,179.276 119.778,176.109 121.5,172.5C 123.396,171.534 125.396,171.201 127.5,171.5C 127.5,170.5 127.5,169.5 127.5,168.5C 126.5,168.5 125.5,168.5 124.5,168.5C 124.494,165.452 125.494,164.952 127.5,167C 131.389,168.14 134.722,167.307 137.5,164.5C 138.167,164.833 138.833,165.167 139.5,165.5C 140.963,163.435 142.963,162.435 145.5,162.5C 151.468,163.365 157.468,163.698 163.5,163.5C 163.561,165.592 164.561,167.092 166.5,168C 164.893,169.049 164.227,170.549 164.5,172.5C 159.917,172.895 155.584,174.062 151.5,176C 150.167,176.667 150.167,177.333 151.5,178C 150.5,178.333 149.5,178.667 148.5,179C 148.833,179.333 149.167,179.667 149.5,180C 153.833,180.667 158.167,180.667 162.5,180C 169.763,179.206 176.763,177.372 183.5,174.5C 189.874,176.201 196.208,177.535 202.5,178.5 Z"/></g>
<g><path style="opacity:1" fill="#544715" d="M 139.5,175.5 C 144.844,173.73 150.177,171.896 155.5,170C 158.227,169.182 160.894,169.348 163.5,170.5C 155.998,171.876 148.665,173.876 141.5,176.5C 140.584,176.457 139.917,176.124 139.5,175.5 Z"/></g>
<g><path style="opacity:1" fill="#4b4014" d="M 136.5,167.5 C 138.048,167.821 138.715,168.821 138.5,170.5C 131.265,171.867 125.099,175.201 120,180.5C 120.195,178.255 121.362,176.422 123.5,175C 127.928,172.459 132.262,169.959 136.5,167.5 Z"/></g>
<g><path style="opacity:1" fill="#1c1709" d="M 176.5,179.5 C 186.974,178.904 197.308,179.737 207.5,182C 210.258,184.402 209.925,186.402 206.5,188C 207.745,188.791 209.078,189.291 210.5,189.5C 211.404,190.209 211.737,191.209 211.5,192.5C 208.461,191.99 205.461,191.323 202.5,190.5C 194.599,189.187 186.599,189.187 178.5,190.5C 174.837,190.952 171.17,191.452 167.5,192C 165.347,192.099 163.681,192.933 162.5,194.5C 162.167,194.5 161.833,194.5 161.5,194.5C 153.661,197.549 145.995,201.049 138.5,205C 136.529,208.647 133.529,210.814 129.5,211.5C 129.892,209.821 130.392,208.154 131,206.5C 134.023,204.302 136.856,201.969 139.5,199.5C 145.965,196.683 152.299,193.683 158.5,190.5C 166.599,189.447 174.599,187.947 182.5,186C 187.155,185.501 191.821,185.334 196.5,185.5C 198.604,185.799 200.604,185.466 202.5,184.5C 201.624,183.749 200.624,183.249 199.5,183C 191.323,182.177 183.323,182.344 175.5,183.5C 172.391,183.264 169.391,183.597 166.5,184.5C 163.482,184.665 160.482,184.498 157.5,184C 162.046,183.151 166.379,181.985 170.5,180.5C 172.5,180.167 174.5,179.833 176.5,179.5 Z"/></g>
<g><path style="opacity:1" fill="#64613b" d="M 175.5,183.5 C 183.323,182.344 191.323,182.177 199.5,183C 200.624,183.249 201.624,183.749 202.5,184.5C 200.604,185.466 198.604,185.799 196.5,185.5C 196.918,184.778 197.584,184.278 198.5,184C 190.841,183.5 183.174,183.334 175.5,183.5 Z"/></g>
<g><path style="opacity:1" fill="#423d1a" d="M 170.5,180.5 C 166.379,181.985 162.046,183.151 157.5,184C 160.482,184.498 163.482,184.665 166.5,184.5C 162.979,185.307 159.312,185.974 155.5,186.5C 155.611,185.883 155.944,185.383 156.5,185C 154.19,184.503 151.857,184.337 149.5,184.5C 156.226,182.438 163.226,181.104 170.5,180.5 Z"/></g>
<g><path style="opacity:1" fill="#b9ba5c" d="M 175.5,183.5 C 183.174,183.334 190.841,183.5 198.5,184C 197.584,184.278 196.918,184.778 196.5,185.5C 191.821,185.334 187.155,185.501 182.5,186C 174.599,187.947 166.599,189.447 158.5,190.5C 158.03,189.307 157.03,188.64 155.5,188.5C 151.511,189.298 147.511,189.965 143.5,190.5C 147.368,189.049 151.368,187.715 155.5,186.5C 159.312,185.974 162.979,185.307 166.5,184.5C 169.391,183.597 172.391,183.264 175.5,183.5 Z"/></g>
<g><path style="opacity:1" fill="#c8c96a" d="M 350.5,170.5 C 355.844,170.334 361.177,170.501 366.5,171C 362.312,171.176 358.312,171.676 354.5,172.5C 335.426,172.476 317.759,177.31 301.5,187C 300.643,187.689 299.977,188.522 299.5,189.5C 301.095,190.434 302.761,190.434 304.5,189.5C 303.089,191.539 301.089,192.539 298.5,192.5C 297.272,190.99 297.272,189.49 298.5,188C 297.167,187.333 295.833,187.333 294.5,188C 291.112,191.341 288.112,191.175 285.5,187.5C 288.7,184.631 292.366,182.631 296.5,181.5C 293.081,183.412 290.081,185.912 287.5,189C 287.833,189.167 288.167,189.333 288.5,189.5C 297.263,184.452 306.263,179.952 315.5,176C 326.904,172.419 338.57,170.585 350.5,170.5 Z"/></g>
<g><path style="opacity:1" fill="#848216" d="M 346.5,185.5 C 352.176,185.334 357.843,185.501 363.5,186C 357.153,186.643 350.82,186.976 344.5,187C 345.416,186.722 346.082,186.222 346.5,185.5 Z"/></g>
<g><path style="opacity:1" fill="#201b0a" d="M 149.5,184.5 C 151.857,184.337 154.19,184.503 156.5,185C 155.944,185.383 155.611,185.883 155.5,186.5C 151.368,187.715 147.368,189.049 143.5,190.5C 135.928,193.62 128.594,197.286 121.5,201.5C 120.893,201.376 120.56,201.043 120.5,200.5C 128.901,192.801 138.567,187.468 149.5,184.5 Z"/></g>
<g><path style="opacity:1" fill="#acac4d" d="M 202.5,190.5 C 193.426,190.296 184.426,190.963 175.5,192.5C 176.5,191.833 177.5,191.167 178.5,190.5C 186.599,189.187 194.599,189.187 202.5,190.5 Z"/></g>
<g><path style="opacity:1" fill="#726d39" d="M 178.5,190.5 C 177.5,191.167 176.5,191.833 175.5,192.5C 171.167,193.167 166.833,193.833 162.5,194.5C 163.681,192.933 165.347,192.099 167.5,192C 171.17,191.452 174.837,190.952 178.5,190.5 Z"/></g>
<g><path style="opacity:1" fill="#d6d354" d="M 354.5,176.5 C 346.869,179.478 338.869,181.478 330.5,182.5C 329.335,183.584 328.002,184.417 326.5,185C 321.173,184.382 316.84,186.049 313.5,190C 311.19,190.497 308.857,190.663 306.5,190.5C 306.48,192.143 307.147,193.476 308.5,194.5C 307.667,194.833 306.833,195.167 306,195.5C 303.39,194.456 300.89,193.456 298.5,192.5C 301.089,192.539 303.089,191.539 304.5,189.5C 314.732,183.851 325.732,180.184 337.5,178.5C 343.085,177.274 348.752,176.607 354.5,176.5 Z"/></g>
<g><path style="opacity:1" fill="#d2cf50" d="M 158.5,190.5 C 152.299,193.683 145.965,196.683 139.5,199.5C 136.794,199.688 134.461,200.688 132.5,202.5C 132.38,201.414 131.713,200.747 130.5,200.5C 126.931,201.444 123.597,202.777 120.5,204.5C 118.97,204.36 117.97,203.693 117.5,202.5C 118.5,201.833 119.5,201.167 120.5,200.5C 120.56,201.043 120.893,201.376 121.5,201.5C 128.594,197.286 135.928,193.62 143.5,190.5C 147.511,189.965 151.511,189.298 155.5,188.5C 157.03,188.64 158.03,189.307 158.5,190.5 Z"/></g>
<g><path style="opacity:1" fill="#352b0a" d="M 95.5,203.5 C 94.2921,202.766 92.9587,202.433 91.5,202.5C 90.537,201.637 90.537,200.97 91.5,200.5C 94.6925,201.866 98.0258,202.699 101.5,203C 99.5273,203.495 97.5273,203.662 95.5,203.5 Z"/></g>
<g><path style="opacity:1" fill="#b4b056" d="M 139.5,199.5 C 136.856,201.969 134.023,204.302 131,206.5C 130.392,208.154 129.892,209.821 129.5,211.5C 128.351,211.209 127.684,210.376 127.5,209C 127.667,208.167 127.833,207.333 128,206.5C 129.667,205.267 131.167,203.933 132.5,202.5C 134.461,200.688 136.794,199.688 139.5,199.5 Z"/></g>
<g><path style="opacity:1" fill="#6c6417" d="M 163.5,204.5 C 163.672,205.492 163.338,206.158 162.5,206.5C 157.519,208.49 152.519,209.99 147.5,211C 152.297,207.566 157.631,205.4 163.5,204.5 Z"/></g>
<g><path style="opacity:1" fill="#ded854" d="M 112.5,208.5 C 107.322,209.425 102.656,211.425 98.5,214.5C 98.6667,214.833 98.8333,215.167 99,215.5C 103.181,212.828 107.681,210.828 112.5,209.5C 112.5,210.5 112.5,211.5 112.5,212.5C 104.527,212.674 104.527,213.174 112.5,214C 107.202,215.159 101.869,215.993 96.5,216.5C 96.8957,213.956 96.229,211.789 94.5,210C 94.8333,209.667 95.1667,209.333 95.5,209C 98.4135,209.29 101.413,209.457 104.5,209.5C 104.5,208.5 104.5,207.5 104.5,206.5C 100.971,206.443 97.9713,205.443 95.5,203.5C 97.5273,203.662 99.5273,203.495 101.5,203C 98.0258,202.699 94.6925,201.866 91.5,200.5C 90.537,200.97 90.537,201.637 91.5,202.5C 89.4099,202.55 88.0766,201.55 87.5,199.5C 89.3333,199.167 91.1667,198.833 93,198.5C 96.7725,198.824 100.272,199.824 103.5,201.5C 103.48,203.143 104.147,204.476 105.5,205.5C 107.875,206.66 110.208,207.66 112.5,208.5 Z"/></g>
<g><path style="opacity:1" fill="#cfc955" d="M 385.5,234.5 C 385.666,227.492 385.5,220.492 385,213.5C 381.664,210.328 377.83,209.328 373.5,210.5C 376.734,211.041 379.567,212.374 382,214.5C 382.5,221.158 382.666,227.825 382.5,234.5C 381.51,228.69 381.177,222.69 381.5,216.5C 380.5,216.5 379.5,216.5 378.5,216.5C 378.5,215.5 378.5,214.5 378.5,213.5C 376.54,212.862 374.707,212.862 373,213.5C 372.558,211.321 371.558,210.655 370,211.5C 369.383,210.551 369.549,209.718 370.5,209C 376.294,206.932 381.961,207.265 387.5,210C 387.006,214.725 387.006,219.558 387.5,224.5C 387.486,228.239 386.82,231.572 385.5,234.5 Z"/></g>
<g><path style="opacity:1" fill="#595017" d="M 112.5,208.5 C 112.5,208.833 112.5,209.167 112.5,209.5C 107.681,210.828 103.181,212.828 99,215.5C 98.8333,215.167 98.6667,214.833 98.5,214.5C 102.656,211.425 107.322,209.425 112.5,208.5 Z"/></g>
<g><path style="opacity:1" fill="#d8d354" d="M 161.5,194.5 C 156.367,198.241 150.7,201.241 144.5,203.5C 141.377,205.541 139.043,208.208 137.5,211.5C 138.723,212.614 140.056,212.781 141.5,212C 143.112,210.605 144.612,209.105 146,207.5C 151.27,206.132 156.437,204.465 161.5,202.5C 162.713,202.747 163.38,203.414 163.5,204.5C 157.631,205.4 152.297,207.566 147.5,211C 152.519,209.99 157.519,208.49 162.5,206.5C 162.5,207.5 162.5,208.5 162.5,209.5C 156.347,211.603 150.013,213.436 143.5,215C 141.553,217.019 139.22,218.519 136.5,219.5C 135.289,218.726 135.289,217.893 136.5,217C 134.386,214.72 132.053,212.887 129.5,211.5C 133.529,210.814 136.529,208.647 138.5,205C 145.995,201.049 153.661,197.549 161.5,194.5 Z"/></g>
<g><path style="opacity:1" fill="#352e10" d="M 385.5,234.5 C 385.5,235.5 385.5,236.5 385.5,237.5C 384.5,237.5 383.5,237.5 382.5,237.5C 382.5,236.5 382.5,235.5 382.5,234.5C 382.666,227.825 382.5,221.158 382,214.5C 379.567,212.374 376.734,211.041 373.5,210.5C 377.83,209.328 381.664,210.328 385,213.5C 385.5,220.492 385.666,227.492 385.5,234.5 Z"/></g>
<g><path style="opacity:1" fill="#e0dd5b" d="M 373.5,226.5 C 361.766,232.617 350.099,238.617 338.5,244.5C 336.565,245.15 334.565,245.483 332.5,245.5C 331.833,245.5 331.167,245.5 330.5,245.5C 330.297,243.61 330.963,242.11 332.5,241C 330.299,239.957 327.966,239.123 325.5,238.5C 327,238.167 328.5,237.833 330,237.5C 333.645,239.022 337.478,239.522 341.5,239C 352.137,235.196 362.471,230.696 372.5,225.5C 373.107,225.624 373.44,225.957 373.5,226.5 Z"/></g>
<g><path style="opacity:1" fill="#fcfcfc" d="M 357.5,293.5 C 353.679,296.149 349.679,298.482 345.5,300.5C 344.957,300.56 344.624,300.893 344.5,301.5C 349.168,302.503 353.835,302.337 358.5,301C 357.833,300.667 357.167,300.333 356.5,300C 358.869,299.464 360.869,298.297 362.5,296.5C 365.028,297.498 365.028,298.331 362.5,299C 363.578,299.674 364.245,300.674 364.5,302C 363.59,310.48 362.924,318.98 362.5,327.5C 355.659,332.835 348.659,338.002 341.5,343C 323.076,353.879 304.076,363.713 284.5,372.5C 273.365,374.506 262.365,376.506 251.5,378.5C 245.298,378.727 239.131,378.394 233,377.5C 223.915,379.198 214.749,379.864 205.5,379.5C 204.833,379.5 204.167,379.5 203.5,379.5C 198.349,378.673 193.016,378.173 187.5,378C 184.5,377.667 182.833,376 182.5,373C 177.511,372.501 172.511,372.334 167.5,372.5C 164.496,372.278 161.829,371.278 159.5,369.5C 157.511,367.09 155.178,364.923 152.5,363C 152.957,362.586 153.291,362.086 153.5,361.5C 148.449,354.35 146.116,346.35 146.5,337.5C 148.303,336.406 148.636,334.739 147.5,332.5C 147.437,330.486 148.103,328.819 149.5,327.5C 150.812,326.855 151.812,325.855 152.5,324.5C 147.206,324.142 142.206,322.809 137.5,320.5C 136.304,318.855 135.304,317.189 134.5,315.5C 134.212,312.134 134.046,308.8 134,305.5C 134.424,307.615 135.591,308.448 137.5,308C 136.688,297.561 136.021,287.061 135.5,276.5C 137.92,276.292 140.253,276.626 142.5,277.5C 148.168,276.705 153.835,275.705 159.5,274.5C 163.167,274.5 166.833,274.5 170.5,274.5C 171.167,274.5 171.833,274.5 172.5,274.5C 192.517,275.722 212.517,275.389 232.5,273.5C 244.532,271.679 256.532,269.679 268.5,267.5C 273.1,267.72 277.433,267.054 281.5,265.5C 286.628,263.802 291.961,262.469 297.5,261.5C 302.813,260.339 308.146,259.172 313.5,258C 314.056,257.617 314.389,257.117 314.5,256.5C 316.262,256.643 317.929,256.309 319.5,255.5C 320.192,256.025 320.692,256.692 321,257.5C 325.529,255.242 330.363,254.075 335.5,254C 333.699,253.683 333.366,253.016 334.5,252C 339.172,251.162 343.505,249.496 347.5,247C 350.267,246.944 352.933,246.778 355.5,246.5C 356.173,248.689 357.173,250.689 358.5,252.5C 356.886,261.681 357.553,270.681 360.5,279.5C 359.167,280.833 359.167,282.167 360.5,283.5C 359.734,286.475 358.4,289.142 356.5,291.5C 356.863,292.183 357.196,292.85 357.5,293.5 Z"/></g>
<g><path style="opacity:1" fill="#b5b457" d="M 326.5,245.5 C 327.833,245.5 329.167,245.5 330.5,245.5C 331.167,245.5 331.833,245.5 332.5,245.5C 325.031,247.548 317.698,250.214 310.5,253.5C 311.801,252.038 313.301,250.704 315,249.5C 319.081,248.527 322.914,247.193 326.5,245.5 Z"/></g>
<g><path style="opacity:1" fill="#211e16" d="M 373.5,226.5 C 374.376,226.369 375.043,226.702 375.5,227.5C 373.497,229.133 372.164,231.133 371.5,233.5C 370.883,233.611 370.383,233.944 370,234.5C 368.951,239.976 368.118,245.476 367.5,251C 369.058,262.804 369.892,274.637 370,286.5C 368.692,288.641 367.192,290.641 365.5,292.5C 368.208,293.578 369.708,295.578 370,298.5C 370.333,305.505 370.167,312.505 369.5,319.5C 369.909,322.855 369.242,325.855 367.5,328.5C 361.222,332.311 354.889,336.144 348.5,340C 347.29,341.039 346.29,342.206 345.5,343.5C 335.803,349.833 325.803,355.833 315.5,361.5C 306.388,366.435 297.055,370.768 287.5,374.5C 275.657,377.602 263.657,379.935 251.5,381.5C 231.874,383.765 212.207,384.099 192.5,382.5C 192.082,381.778 191.416,381.278 190.5,381C 195.489,380.501 200.489,380.334 205.5,380.5C 221.033,380.839 236.367,380.173 251.5,378.5C 262.365,376.506 273.365,374.506 284.5,372.5C 304.076,363.713 323.076,353.879 341.5,343C 348.659,338.002 355.659,332.835 362.5,327.5C 364.144,327.714 365.644,327.38 367,326.5C 368.483,317.213 368.816,307.879 368,298.5C 367.128,296.387 365.628,295.054 363.5,294.5C 359.931,297.314 355.931,299.48 351.5,301C 349.288,301.789 347.288,301.622 345.5,300.5C 349.679,298.482 353.679,296.149 357.5,293.5C 361.12,291.715 363.953,289.048 366,285.5C 365.859,274.305 365.026,263.138 363.5,252C 363.361,245.609 364.694,239.609 367.5,234C 366.5,233.333 365.5,233.333 364.5,234C 357.704,238.758 350.371,242.258 342.5,244.5C 341.167,244.5 339.833,244.5 338.5,244.5C 350.099,238.617 361.766,232.617 373.5,226.5 Z"/></g>
<g><path style="opacity:1" fill="#50491e" d="M 300.5,255.5 C 300.03,256.693 299.03,257.36 297.5,257.5C 294.295,258.767 290.962,259.434 287.5,259.5C 291.509,257.422 295.842,256.089 300.5,255.5 Z"/></g>
<g><path style="opacity:1" fill="#e4e2e3" d="M 357.5,293.5 C 357.196,292.85 356.863,292.183 356.5,291.5C 358.4,289.142 359.734,286.475 360.5,283.5C 359.167,282.167 359.167,280.833 360.5,279.5C 357.553,270.681 356.886,261.681 358.5,252.5C 357.173,250.689 356.173,248.689 355.5,246.5C 352.933,246.778 350.267,246.944 347.5,247C 343.505,249.496 339.172,251.162 334.5,252C 333.366,253.016 333.699,253.683 335.5,254C 330.363,254.075 325.529,255.242 321,257.5C 320.692,256.692 320.192,256.025 319.5,255.5C 317.929,256.309 316.262,256.643 314.5,256.5C 323.864,252.483 333.197,248.483 342.5,244.5C 350.371,242.258 357.704,238.758 364.5,234C 365.5,233.333 366.5,233.333 367.5,234C 364.694,239.609 363.361,245.609 363.5,252C 365.026,263.138 365.859,274.305 366,285.5C 363.953,289.048 361.12,291.715 357.5,293.5 Z"/></g>
<g><path style="opacity:1" fill="#99969e" d="M 314.5,256.5 C 314.389,257.117 314.056,257.617 313.5,258C 308.146,259.172 302.813,260.339 297.5,261.5C 302.798,258.964 308.465,257.297 314.5,256.5 Z"/></g>
<g><path style="opacity:1" fill="#e5e065" d="M 326.5,245.5 C 322.914,247.193 319.081,248.527 315,249.5C 313.301,250.704 311.801,252.038 310.5,253.5C 307.097,253.851 303.763,254.518 300.5,255.5C 295.842,256.089 291.509,257.422 287.5,259.5C 279.558,261.111 271.558,262.444 263.5,263.5C 256.245,264.938 248.912,265.605 241.5,265.5C 255.71,262.961 270.043,260.461 284.5,258C 285.833,257.333 287.167,256.667 288.5,256C 287.167,255.333 287.167,254.667 288.5,254C 291.081,252.204 293.748,252.037 296.5,253.5C 301.032,251.888 305.699,251.221 310.5,251.5C 310.5,250.5 310.5,249.5 310.5,248.5C 312.884,248.557 315.218,248.223 317.5,247.5C 319.977,244.538 322.977,243.871 326.5,245.5 Z"/></g>
<g><path style="opacity:1" fill="#7d8182" d="M 281.5,265.5 C 277.433,267.054 273.1,267.72 268.5,267.5C 272.567,265.946 276.9,265.28 281.5,265.5 Z"/></g>
<g><path style="opacity:1" fill="#e6e052" d="M 105.5,266.5 C 111.316,267.847 112.983,271.347 110.5,277C 105.593,278.102 102.927,276.102 102.5,271C 100.899,270.727 99.3988,270.227 98,269.5C 97.6667,269.833 97.3333,270.167 97,270.5C 96.7266,268.899 96.2266,267.399 95.5,266C 97.1673,261.34 96.334,257.174 93,253.5C 92.501,257.821 92.3343,262.154 92.5,266.5C 91.1779,266.67 90.0113,266.337 89,265.5C 87.5396,259.022 87.7063,252.689 89.5,246.5C 93.7992,247.88 95.7992,246.214 95.5,241.5C 96.8333,241.5 98.1667,241.5 99.5,241.5C 99.4532,236.864 101.453,235.531 105.5,237.5C 105.665,240.518 105.498,243.518 105,246.5C 104.29,247.973 103.124,248.64 101.5,248.5C 101.289,252.673 102.456,256.339 105,259.5C 105.497,261.81 105.663,264.143 105.5,266.5 Z"/></g>
<g><path style="opacity:1" fill="#443a0e" d="M 105.5,266.5 C 106.806,268.816 108.139,271.15 109.5,273.5C 107.671,274.282 106.171,273.616 105,271.5C 103.772,267.941 102.106,264.608 100,261.5C 96.9318,255.424 96.9318,249.424 100,243.5C 101.185,241.441 102.352,241.274 103.5,243C 102.924,244.714 101.757,245.881 100,246.5C 99.8333,247.833 99.6667,249.167 99.5,250.5C 100.901,256.142 102.901,261.476 105.5,266.5 Z"/></g>
<g><path style="opacity:1" fill="#ccc86b" d="M 371.5,233.5 C 368.817,249.365 369.151,265.198 372.5,281C 372.333,282.833 372.167,284.667 372,286.5C 370.637,287.893 369.804,289.559 369.5,291.5C 371.462,300.065 371.962,308.732 371,317.5C 370.722,318.416 370.222,319.082 369.5,319.5C 370.167,312.505 370.333,305.505 370,298.5C 369.708,295.578 368.208,293.578 365.5,292.5C 367.192,290.641 368.692,288.641 370,286.5C 369.892,274.637 369.058,262.804 367.5,251C 368.118,245.476 368.951,239.976 370,234.5C 370.383,233.944 370.883,233.611 371.5,233.5 Z"/></g>
<g><path style="opacity:1" fill="#12100d" d="M 338.5,244.5 C 339.833,244.5 341.167,244.5 342.5,244.5C 333.197,248.483 323.864,252.483 314.5,256.5C 308.465,257.297 302.798,258.964 297.5,261.5C 291.961,262.469 286.628,263.802 281.5,265.5C 276.9,265.28 272.567,265.946 268.5,267.5C 256.532,269.679 244.532,271.679 232.5,273.5C 212.503,273.99 192.503,274.323 172.5,274.5C 171.833,274.5 171.167,274.5 170.5,274.5C 165.402,273.043 160.069,272.376 154.5,272.5C 145.202,270.374 135.869,268.374 126.5,266.5C 126.433,267.959 126.766,269.292 127.5,270.5C 128.603,280.133 129.436,289.799 130,299.5C 130.232,300.737 130.732,301.737 131.5,302.5C 131.952,306.163 132.452,309.83 133,313.5C 133.278,314.416 133.778,315.082 134.5,315.5C 134.657,316.873 134.49,318.207 134,319.5C 133.617,318.944 133.117,318.611 132.5,318.5C 132.068,317.29 131.401,316.29 130.5,315.5C 129.844,309.23 128.511,303.23 126.5,297.5C 126.5,297.167 126.5,296.833 126.5,296.5C 126.666,289.492 126.5,282.492 126,275.5C 125.844,272.809 125.011,270.476 123.5,268.5C 123.201,265.358 121.534,263.191 118.5,262C 120.265,261.36 121.932,261.527 123.5,262.5C 127.919,263.972 132.586,264.638 137.5,264.5C 143.453,265.557 149.453,266.224 155.5,266.5C 155.5,266.833 155.5,267.167 155.5,267.5C 167.559,269.967 179.892,270.967 192.5,270.5C 206.565,270.557 220.565,269.891 234.5,268.5C 243.485,267.298 252.485,266.131 261.5,265C 262.416,264.722 263.082,264.222 263.5,263.5C 271.558,262.444 279.558,261.111 287.5,259.5C 290.962,259.434 294.295,258.767 297.5,257.5C 299.03,257.36 300.03,256.693 300.5,255.5C 303.763,254.518 307.097,253.851 310.5,253.5C 317.698,250.214 325.031,247.548 332.5,245.5C 334.565,245.483 336.565,245.15 338.5,244.5 Z"/></g>
<g><path style="opacity:1" fill="#aeae54" d="M 237.5,266.5 C 236.5,267.167 235.5,267.833 234.5,268.5C 220.565,269.891 206.565,270.557 192.5,270.5C 179.892,270.967 167.559,269.967 155.5,267.5C 182.877,269.127 210.21,268.794 237.5,266.5 Z"/></g>
<g><path style="opacity:1" fill="#6e6b30" d="M 263.5,263.5 C 263.082,264.222 262.416,264.722 261.5,265C 252.485,266.131 243.485,267.298 234.5,268.5C 235.5,267.833 236.5,267.167 237.5,266.5C 239.099,266.768 240.432,266.434 241.5,265.5C 248.912,265.605 256.245,264.938 263.5,263.5 Z"/></g>
<g><path style="opacity:1" fill="#818085" d="M 154.5,272.5 C 160.069,272.376 165.402,273.043 170.5,274.5C 166.833,274.5 163.167,274.5 159.5,274.5C 157.833,273.833 156.167,273.167 154.5,272.5 Z"/></g>
<g><path style="opacity:1" fill="#7b7b7c" d="M 232.5,273.5 C 212.517,275.389 192.517,275.722 172.5,274.5C 192.503,274.323 212.503,273.99 232.5,273.5 Z"/></g>
<g><path style="opacity:1" fill="#b9b953" d="M 123.5,268.5 C 125.011,270.476 125.844,272.809 126,275.5C 126.5,282.492 126.666,289.492 126.5,296.5C 125.505,287.308 124.505,277.975 123.5,268.5 Z"/></g>
<g><path style="opacity:1" fill="#575254" d="M 127.5,270.5 C 128.887,272.877 129.721,275.543 130,278.5C 130.343,286.519 130.843,294.519 131.5,302.5C 130.732,301.737 130.232,300.737 130,299.5C 129.436,289.799 128.603,280.133 127.5,270.5 Z"/></g>
<g><path style="opacity:1" fill="#e0dd58" d="M 155.5,266.5 C 149.453,266.224 143.453,265.557 137.5,264.5C 133.1,262.896 128.434,262.229 123.5,262.5C 121.932,261.527 120.265,261.36 118.5,262C 121.534,263.191 123.201,265.358 123.5,268.5C 124.505,277.975 125.505,287.308 126.5,296.5C 126.5,296.833 126.5,297.167 126.5,297.5C 126.369,303.221 126.869,308.888 128,314.5C 128.671,315.252 129.504,315.586 130.5,315.5C 131.401,316.29 132.068,317.29 132.5,318.5C 132.733,320.062 133.4,321.395 134.5,322.5C 129.73,320.898 126.396,317.731 124.5,313C 125.08,310.542 125.414,308.042 125.5,305.5C 123.864,295.342 123.031,285.009 123,274.5C 121.815,271.068 120.648,267.735 119.5,264.5C 115.65,264.299 114.65,262.466 116.5,259C 119.551,258.143 122.217,258.81 124.5,261C 135.221,261.458 145.554,263.291 155.5,266.5 Z"/></g>
<g><path style="opacity:1" fill="#4c4c19" d="M 123.5,262.5 C 128.434,262.229 133.1,262.896 137.5,264.5C 132.586,264.638 127.919,263.972 123.5,262.5 Z"/></g>
<g><path style="opacity:1" fill="#e6e6e7" d="M 154.5,272.5 C 156.167,273.167 157.833,273.833 159.5,274.5C 153.835,275.705 148.168,276.705 142.5,277.5C 140.253,276.626 137.92,276.292 135.5,276.5C 136.021,287.061 136.688,297.561 137.5,308C 135.591,308.448 134.424,307.615 134,305.5C 134.046,308.8 134.212,312.134 134.5,315.5C 133.778,315.082 133.278,314.416 133,313.5C 132.452,309.83 131.952,306.163 131.5,302.5C 130.843,294.519 130.343,286.519 130,278.5C 129.721,275.543 128.887,272.877 127.5,270.5C 126.766,269.292 126.433,267.959 126.5,266.5C 135.869,268.374 145.202,270.374 154.5,272.5 Z"/></g>
<g><path style="opacity:1" fill="#373737" d="M 195.5,293.5 C 198.486,299.303 200.819,305.47 202.5,312C 202.167,312.5 201.833,313 201.5,313.5C 198.637,310.312 196.804,306.645 196,302.5C 194.643,299.473 194.476,296.473 195.5,293.5 Z"/></g>
<g><path style="opacity:1" fill="#c0bb5e" d="M 126.5,297.5 C 128.511,303.23 129.844,309.23 130.5,315.5C 129.504,315.586 128.671,315.252 128,314.5C 126.869,308.888 126.369,303.221 126.5,297.5 Z"/></g>
<g><path style="opacity:1" fill="#2a2a2a" d="M 274.5,298.5 C 275.5,298.5 276.5,298.5 277.5,298.5C 279.412,302.671 281.079,307.004 282.5,311.5C 286.55,312.773 290.55,312.606 294.5,311C 300.659,308.631 306.659,305.965 312.5,303C 325.706,302.724 325.706,303.724 312.5,306C 307.474,308.38 302.474,310.714 297.5,313C 292.669,315.062 287.669,315.729 282.5,315C 281.333,313.833 280.167,312.667 279,311.5C 277.58,307.072 276.08,302.739 274.5,298.5 Z"/></g>
<g><path style="opacity:1" fill="#2d2d2d" d="M 234.5,315.5 C 237.833,315.5 241.167,315.5 244.5,315.5C 244.5,316.5 244.5,317.5 244.5,318.5C 228.24,319.756 212.24,322.756 196.5,327.5C 195.479,326.998 195.312,326.332 196,325.5C 197.067,324.809 198.234,324.309 199.5,324C 211.282,321.032 222.949,318.199 234.5,315.5 Z"/></g>
<g><path style="opacity:1" fill="#dee0db" d="M 362.5,327.5 C 362.924,318.98 363.59,310.48 364.5,302C 364.245,300.674 363.578,299.674 362.5,299C 365.028,298.331 365.028,297.498 362.5,296.5C 360.869,298.297 358.869,299.464 356.5,300C 357.167,300.333 357.833,300.667 358.5,301C 353.835,302.337 349.168,302.503 344.5,301.5C 344.624,300.893 344.957,300.56 345.5,300.5C 347.288,301.622 349.288,301.789 351.5,301C 355.931,299.48 359.931,297.314 363.5,294.5C 365.628,295.054 367.128,296.387 368,298.5C 368.816,307.879 368.483,317.213 367,326.5C 365.644,327.38 364.144,327.714 362.5,327.5 Z"/></g>
<g><path style="opacity:1" fill="#afad58" d="M 136.5,323.5 C 141.201,324.684 142.367,327.351 140,331.5C 139.501,335.821 139.334,340.154 139.5,344.5C 139.022,337.482 138.022,330.482 136.5,323.5 Z"/></g>
<g><path style="opacity:1" fill="#dcd75a" d="M 134.5,322.5 C 135.167,322.833 135.833,323.167 136.5,323.5C 138.022,330.482 139.022,337.482 139.5,344.5C 140.16,349.262 141.326,353.929 143,358.5C 145.812,363.84 149.312,368.507 153.5,372.5C 150.838,370.732 147.838,370.065 144.5,370.5C 144.287,366.595 142.787,363.262 140,360.5C 138.402,352.957 136.902,345.457 135.5,338C 135.876,335.095 136.543,332.262 137.5,329.5C 136.474,327.153 135.474,324.82 134.5,322.5 Z"/></g>
<g><path style="opacity:1" fill="#cac85a" d="M 367.5,328.5 C 366.414,331.917 364.081,333.917 360.5,334.5C 358.597,337.459 355.931,339.126 352.5,339.5C 350.15,340.861 347.816,342.194 345.5,343.5C 346.29,342.206 347.29,341.039 348.5,340C 354.889,336.144 361.222,332.311 367.5,328.5 Z"/></g>
<g><path style="opacity:1" fill="#dadadc" d="M 149.5,327.5 C 148.103,328.819 147.437,330.486 147.5,332.5C 148.636,334.739 148.303,336.406 146.5,337.5C 146.116,346.35 148.449,354.35 153.5,361.5C 153.291,362.086 152.957,362.586 152.5,363C 155.178,364.923 157.511,367.09 159.5,369.5C 157.784,369.371 156.117,369.038 154.5,368.5C 152.203,366.706 150.037,364.706 148,362.5C 141.722,351.49 140.222,339.823 143.5,327.5C 145.5,327.5 147.5,327.5 149.5,327.5 Z"/></g>
<g><path style="opacity:1" fill="#2d2b1d" d="M 134.5,315.5 C 135.304,317.189 136.304,318.855 137.5,320.5C 142.206,322.809 147.206,324.142 152.5,324.5C 151.812,325.855 150.812,326.855 149.5,327.5C 147.5,327.5 145.5,327.5 143.5,327.5C 140.222,339.823 141.722,351.49 148,362.5C 150.037,364.706 152.203,366.706 154.5,368.5C 158.188,371.442 162.521,373.109 167.5,373.5C 172.625,375.532 177.958,377.199 183.5,378.5C 190.134,379.497 196.8,379.83 203.5,379.5C 204.167,379.5 204.833,379.5 205.5,379.5C 205.5,379.833 205.5,380.167 205.5,380.5C 200.489,380.334 195.489,380.501 190.5,381C 191.416,381.278 192.082,381.778 192.5,382.5C 188.466,382.495 184.466,382.162 180.5,381.5C 173.322,380.964 166.989,378.464 161.5,374C 158.79,374.572 156.123,374.072 153.5,372.5C 149.312,368.507 145.812,363.84 143,358.5C 141.326,353.929 140.16,349.262 139.5,344.5C 139.334,340.154 139.501,335.821 140,331.5C 142.367,327.351 141.201,324.684 136.5,323.5C 135.833,323.167 135.167,322.833 134.5,322.5C 133.4,321.395 132.733,320.062 132.5,318.5C 133.117,318.611 133.617,318.944 134,319.5C 134.49,318.207 134.657,316.873 134.5,315.5 Z"/></g>
<g><path style="opacity:1" fill="#c9c65e" d="M 315.5,361.5 C 312.606,364.248 309.44,366.914 306,369.5C 299.96,371.455 293.794,373.121 287.5,374.5C 297.055,370.768 306.388,366.435 315.5,361.5 Z"/></g>
<g><path style="opacity:1" fill="#7c767b" d="M 154.5,368.5 C 156.117,369.038 157.784,369.371 159.5,369.5C 161.829,371.278 164.496,372.278 167.5,372.5C 167.5,372.833 167.5,373.167 167.5,373.5C 162.521,373.109 158.188,371.442 154.5,368.5 Z"/></g>
<g><path style="opacity:1" fill="#d1d6cf" d="M 167.5,372.5 C 172.511,372.334 177.511,372.501 182.5,373C 182.833,376 184.5,377.667 187.5,378C 193.016,378.173 198.349,378.673 203.5,379.5C 196.8,379.83 190.134,379.497 183.5,378.5C 177.958,377.199 172.625,375.532 167.5,373.5C 167.5,373.167 167.5,372.833 167.5,372.5 Z"/></g>
<g><path style="opacity:1" fill="#bebdbe" d="M 251.5,378.5 C 236.367,380.173 221.033,380.839 205.5,380.5C 205.5,380.167 205.5,379.833 205.5,379.5C 214.749,379.864 223.915,379.198 233,377.5C 239.131,378.394 245.298,378.727 251.5,378.5 Z"/></g>
<g><path style="opacity:1" fill="#eae554" d="M 352.5,339.5 C 352.244,341.912 353.244,343.579 355.5,344.5C 352.482,344.953 349.482,345.287 346.5,345.5C 347.734,347.398 347.401,349.065 345.5,350.5C 339.456,352.008 333.456,353.841 327.5,356C 326.501,358.761 324.501,360.094 321.5,360C 319.667,361.833 317.833,363.667 316,365.5C 316.063,368.173 316.729,368.173 318,365.5C 322.111,368.229 322.444,371.229 319,374.5C 317.111,371.615 314.444,369.948 311,369.5C 307.089,370.436 303.255,371.602 299.5,373C 301.67,374.586 304.004,375.92 306.5,377C 301.083,377.768 296.083,379.602 291.5,382.5C 287.576,381.87 283.409,381.203 279,380.5C 266.612,380.291 254.779,382.624 243.5,387.5C 233.705,386.857 224.038,386.19 214.5,385.5C 223.839,385.666 233.173,385.5 242.5,385C 245.422,383.397 248.422,382.23 251.5,381.5C 263.657,379.935 275.657,377.602 287.5,374.5C 293.794,373.121 299.96,371.455 306,369.5C 309.44,366.914 312.606,364.248 315.5,361.5C 325.803,355.833 335.803,349.833 345.5,343.5C 347.816,342.194 350.15,340.861 352.5,339.5 Z"/></g>
<g><path style="opacity:1" fill="#d1ce65" d="M 180.5,381.5 C 184.466,382.162 188.466,382.495 192.5,382.5C 212.207,384.099 231.874,383.765 251.5,381.5C 248.422,382.23 245.422,383.397 242.5,385C 233.173,385.5 223.839,385.666 214.5,385.5C 203.831,384.804 193.164,383.97 182.5,383C 181.584,382.722 180.918,382.222 180.5,381.5 Z"/></g>
</svg>
